<?xml version="1.0" encoding="UTF-8" standalone="no"?>
<svg width="60px" height="60px" viewBox="0 0 60 60" version="1.1" xmlns="http://www.w3.org/2000/svg" xmlns:xlink="http://www.w3.org/1999/xlink">
    <!-- Generator: Sketch 48.2 (47327) - http://www.bohemiancoding.com/sketch -->
    <title>checked-hover</title>
    <desc>Created with Sketch.</desc>
    <defs></defs>
    <g id="Page-1" stroke="none" stroke-width="1" fill="none" fill-rule="evenodd">
        <g id="checked-hover" fill="#293447" fill-rule="nonzero">
            <path d="M0,10 L0,50 C6.76353751e-16,55.5228475 4.4771525,60 10,60 L50,60 C55.5228475,60 60,55.5228475 60,50 L60,10 C60,4.4771525 55.5228475,-4.56724431e-15 50,-3.55271368e-15 L10,0 C4.4771525,1.01453063e-15 -4.22906743e-15,4.4771525 -3.55271368e-15,10 Z M44.4949892,22.3305783 L28.4951577,40.3290567 C28.1011618,40.7720193 27.5521676,41 26.9991735,41 C26.5601781,41 26.1191827,40.8560122 25.7501866,40.562037 L15.7502919,32.5627133 C14.888301,31.8737715 14.7483025,30.6148779 15.4382952,29.7519509 C16.1272879,28.8900237 17.3872747,28.7490357 18.2492656,29.4389773 L26.7661759,36.2514014 L41.5050207,19.671803 C42.237013,18.8458729 43.5029997,18.7708792 44.327991,19.5058171 C45.1539823,20.2407549 45.2289815,21.5046481 44.4949892,22.3305783 Z" id="Shape"></path>
        </g>
    </g>
</svg>