<?xml version="1.0" encoding="UTF-8" standalone="no"?>
<svg width="60px" height="41px" viewBox="0 0 60 41" version="1.1" xmlns="http://www.w3.org/2000/svg" xmlns:xlink="http://www.w3.org/1999/xlink">
    <!-- Generator: Sketch 48.2 (47327) - http://www.bohemiancoding.com/sketch -->
    <title>envelope</title>
    <desc>Created with Sketch.</desc>
    <defs></defs>
    <g id="Page-1" stroke="none" stroke-width="1" fill="none" fill-rule="evenodd">
        <g id="envelope" transform="translate(1.000000, 1.000000)" fill-rule="nonzero">
            <polygon id="Shape" fill="#545E73" points="0 0 0 38.8772927 0 39 57.541 39 57.871 39 58 38.8772927 58 0.0998780488"></polygon>
            <path d="M58,38.3871809 L58,1.61281908 C58,1.1064513 57.394,0.819286204 56.973,1.12655285 L37,20.4776513 L56.973,38.8734471 C57.394,39.1807138 58,38.8935487 58,38.3871809 Z" id="Shape" stroke="#ECF0F1" fill="#293447"></path>
            <path d="M0,0.000964285714 L27.139,26.2941429 C28.188,27.2352857 29.813,27.2352857 30.862,26.2941429 L58,0" id="Shape" stroke="#FFFFFF" fill="#545E73"></path>
            <path d="M0,38.3871809 L0,1.61281908 C0,1.1064513 0.606,0.819286204 1.027,1.12655285 L21,20.4776513 L1.027,38.8734471 C0.606,39.1807138 0,38.8935487 0,38.3871809 Z" id="Shape" stroke="#ECF0F1" fill="#293447"></path>
        </g>
    </g>
</svg>