<?xml version="1.0" encoding="UTF-8" standalone="no"?>
<svg width="54px" height="54px" viewBox="0 0 54 54" version="1.1" xmlns="http://www.w3.org/2000/svg" xmlns:xlink="http://www.w3.org/1999/xlink">
    <!-- Generator: Sketch 48.2 (47327) - http://www.bohemiancoding.com/sketch -->
    <title>right</title>
    <desc>Created with Sketch.</desc>
    <defs></defs>
    <g id="Page-1" stroke="none" stroke-width="1" fill="none" fill-rule="evenodd">
        <g id="right" fill-rule="nonzero">
            <g id="Group" fill="#545E73">
                <path d="M27,53 C12.641,53 1,41.359 1,27 C1,12.641 12.641,1 27,1 C41.359,1 53,12.641 53,27 C53,41.359 41.359,53 27,53 Z" id="Shape"></path>
                <path d="M27,54 C12.112,54 0,41.888 0,27 C0,12.112 12.112,0 27,0 C41.888,0 54,12.112 54,27 C54,41.888 41.888,54 27,54 Z M27,2 C13.215,2 2,13.215 2,27 C2,40.785 13.215,52 27,52 C40.785,52 52,40.785 52,27 C52,13.215 40.785,2 27,2 Z" id="Shape"></path>
            </g>
            <path d="M22.294,40 C22.038,40 21.782,39.902 21.587,39.707 C21.196,39.316 21.196,38.684 21.587,38.293 L32.88,27 L21.587,15.707 C21.196,15.316 21.196,14.684 21.587,14.293 C21.978,13.902 22.61,13.902 23.001,14.293 L34.499,25.791 C35.166,26.458 35.166,27.542 34.499,28.209 L23.001,39.707 C22.806,39.902 22.55,40 22.294,40 Z" id="Shape" fill="#FDFFFC"></path>
        </g>
    </g>
</svg>