<?xml version="1.0" encoding="UTF-8" standalone="no"?>
<svg width="54px" height="54px" viewBox="0 0 54 54" version="1.1" xmlns="http://www.w3.org/2000/svg" xmlns:xlink="http://www.w3.org/1999/xlink">
    <!-- Generator: Sketch 48.2 (47327) - http://www.bohemiancoding.com/sketch -->
    <title>left-arrow</title>
    <desc>Created with Sketch.</desc>
    <defs></defs>
    <g id="Page-1" stroke="none" stroke-width="1" fill="none" fill-rule="evenodd">
        <g id="left-arrow" fill-rule="nonzero">
            <g id="Group" fill="#545E73">
                <path d="M27,53 C12.641,53 1,41.359 1,27 C1,12.641 12.641,1 27,1 C41.359,1 53,12.641 53,27 C53,41.359 41.359,53 27,53 Z" id="Shape"></path>
                <path d="M27,54 C12.112,54 0,41.888 0,27 C0,12.112 12.112,0 27,0 C41.888,0 54,12.112 54,27 C54,41.888 41.888,54 27,54 Z M27,2 C13.215,2 2,13.215 2,27 C2,40.785 13.215,52 27,52 C40.785,52 52,40.785 52,27 C52,13.215 40.785,2 27,2 Z" id="Shape"></path>
            </g>
            <path d="M40,28 L14,28 C13.448,28 13,27.553 13,27 C13,26.447 13.448,26 14,26 L40,26 C40.552,26 41,26.447 41,27 C41,27.553 40.552,28 40,28 Z" id="Shape" stroke="#FDFFFC" fill="#FDFFFC"></path>
            <path d="M25.70525,40.00025 C25.44925,40.00025 25.19325,39.90225 24.99825,39.70725 L13.50025,28.20925 C12.83325,27.54225 12.83325,26.45825 13.50025,25.79125 L24.99825,14.29325 C25.38925,13.90225 26.02125,13.90225 26.41225,14.29325 C26.80325,14.68425 26.80325,15.31625 26.41225,15.70725 L15.11925,27.00025 L26.41225,38.29325 C26.80325,38.68425 26.80325,39.31625 26.41225,39.70725 C26.21725,39.90225 25.96125,40.00025 25.70525,40.00025 Z" id="Shape" stroke="#FDFFFC" fill="#FDFFFC"></path>
        </g>
    </g>
</svg>