<?xml version="1.0" encoding="UTF-8" standalone="no"?>
<svg width="54px" height="54px" viewBox="0 0 54 54" version="1.1" xmlns="http://www.w3.org/2000/svg" xmlns:xlink="http://www.w3.org/1999/xlink">
    <!-- Generator: Sketch 48.2 (47327) - http://www.bohemiancoding.com/sketch -->
    <title>right-arrow-hover</title>
    <desc>Created with Sketch.</desc>
    <defs></defs>
    <g id="Page-1" stroke="none" stroke-width="1" fill="none" fill-rule="evenodd">
        <g id="right-arrow-hover" fill-rule="nonzero">
            <path d="M27,53 C12.641,53 1,41.359 1,27 C1,12.641 12.641,1 27,1 C41.359,1 53,12.641 53,27 C53,41.359 41.359,53 27,53 Z" id="Shape" fill="#293447"></path>
            <path d="M27,54 C12.112,54 0,41.888 0,27 C0,12.112 12.112,0 27,0 C41.888,0 54,12.112 54,27 C54,41.888 41.888,54 27,54 Z M27,2 C13.215,2 2,13.215 2,27 C2,40.785 13.215,52 27,52 C40.785,52 52,40.785 52,27 C52,13.215 40.785,2 27,2 Z" id="Shape" fill="#293447"></path>
            <path d="M39,28 L13,28 C12.448,28 12,27.553 12,27 C12,26.447 12.448,26 13,26 L39,26 C39.552,26 40,26.447 40,27 C40,27.553 39.552,28 39,28 Z" id="Shape" stroke="#FDFFFC" fill="#FDFFFC"></path>
            <path d="M28.00025,40.00025 C27.74425,40.00025 27.48825,39.90225 27.29325,39.70725 C26.90225,39.31625 26.90225,38.68425 27.29325,38.29325 L38.58625,27.00025 L27.29325,15.70725 C26.90225,15.31625 26.90225,14.68425 27.29325,14.29325 C27.68425,13.90225 28.31625,13.90225 28.70725,14.29325 L40.20525,25.79125 C40.87225,26.45825 40.87225,27.54225 40.20525,28.20925 L28.70725,39.70725 C28.51225,39.90225 28.25625,40.00025 28.00025,40.00025 Z" id="Shape" stroke="#FDFFFC" fill="#FDFFFC"></path>
        </g>
    </g>
</svg>