<?xml version="1.0" encoding="UTF-8" standalone="no"?>
<svg width="58px" height="58px" viewBox="0 0 58 58" version="1.1" xmlns="http://www.w3.org/2000/svg" xmlns:xlink="http://www.w3.org/1999/xlink">
    <!-- Generator: Sketch 48.2 (47327) - http://www.bohemiancoding.com/sketch -->
    <title>stopwatch-message</title>
    <desc>Created with Sketch.</desc>
    <defs></defs>
    <g id="Page-1" stroke="none" stroke-width="1" fill="none" fill-rule="evenodd">
        <g id="stopwatch-message" fill-rule="nonzero">
            <g id="Group">
                <circle id="Oval" fill="#FDFFFC" cx="29" cy="29" r="29"></circle>
                <path d="M29,4 C42.785,4 54,15.215 54,29 C54,42.785 42.785,54 29,54 C15.215,54 4,42.785 4,29 C4,15.215 15.215,4 29,4 Z M29,0 C12.984,0 0,12.984 0,29 C0,45.016 12.984,58 29,58 C45.016,58 58,45.016 58,29 C58,12.984 45.016,0 29,0 Z" id="Shape" fill="#545E73"></path>
                <path d="M26,30 L18,30 C17.447,30 17,29.553 17,29 C17,28.447 17.447,28 18,28 L26,28 C26.553,28 27,28.447 27,29 C27,29.553 26.553,30 26,30 Z" id="Shape" fill="#545E73"></path>
                <path d="M29,27 C28.447,27 28,26.553 28,26 L28,15 C28,14.447 28.447,14 29,14 C29.553,14 30,14.447 30,15 L30,26 C30,26.553 29.553,27 29,27 Z" id="Shape" fill="#545E73"></path>
                <path d="M29,33 C26.794,33 25,31.206 25,29 C25,26.794 26.794,25 29,25 C31.206,25 33,26.794 33,29 C33,31.206 31.206,33 29,33 Z M29,27 C27.897,27 27,27.897 27,29 C27,30.103 27.897,31 29,31 C30.103,31 31,30.103 31,29 C31,27.897 30.103,27 29,27 Z" id="Shape" fill="#545E73"></path>
            </g>
            <g id="Group" transform="translate(6.000000, 7.000000)" fill="#808AA1">
                <path d="M23,0 C22.448,0 22,0.447 22,1 L22,2 C22,2.553 22.448,3 23,3 C23.552,3 24,2.553 24,2 L24,1 C24,0.448 23.552,0 23,0 Z" id="Shape"></path>
                <path d="M23,43 C22.448,43 22,43.447 22,44 L22,45 C22,45.553 22.448,46 23,46 C23.552,46 24,45.553 24,45 L24,44 C24,43.448 23.552,43 23,43 Z" id="Shape"></path>
                <path d="M45,22 L44,22 C43.448,22 43,22.447 43,23 C43,23.553 43.448,24 44,24 L45,24 C45.552,24 46,23.553 46,23 C46,22.447 45.552,22 45,22 Z" id="Shape"></path>
                <path d="M2,22 L1,22 C0.448,22 0,22.447 0,23 C0,23.553 0.448,24 1,24 L2,24 C2.552,24 3,23.553 3,23 C3,22.447 2.552,22 2,22 Z" id="Shape"></path>
                <path d="M8.00025,37.29325 L7.29325,38.00025 C6.90225,38.39125 6.90225,39.02325 7.29325,39.41425 C7.48825,39.60925 7.74425,39.70725 8.00025,39.70725 C8.25625,39.70725 8.51225,39.60925 8.70725,39.41425 L9.41425,38.70725 C9.80525,38.31625 9.80525,37.68425 9.41425,37.29325 C9.02325,36.90225 8.39025,36.90225 8.00025,37.29325 Z" id="Shape"></path>
                <path d="M38.00025,6.29325 L37.29325,7.00025 C36.90225,7.39125 36.90225,8.02325 37.29325,8.41425 C37.48825,8.60925 37.74425,8.70725 38.00025,8.70725 C38.25625,8.70725 38.51225,8.60925 38.70725,8.41425 L39.41425,7.70725 C39.80525,7.31625 39.80525,6.68425 39.41425,6.29325 C39.02325,5.90225 38.39125,5.90225 38.00025,6.29325 Z" id="Shape"></path>
                <path d="M8.70725,6.29325 C8.31625,5.90225 7.68425,5.90225 7.29325,6.29325 C6.90225,6.68425 6.90225,7.31625 7.29325,7.70725 L8.00025,8.41425 C8.19525,8.60925 8.45125,8.70725 8.70725,8.70725 C8.96325,8.70725 9.21925,8.60925 9.41425,8.41425 C9.80525,8.02325 9.80525,7.39125 9.41425,7.00025 L8.70725,6.29325 Z" id="Shape"></path>
            </g>
            <g id="envelope" transform="translate(36.000000, 32.000000)">
                <polygon id="Shape" fill="#ECF0F1" points="0 5 0 5.04097561 0 20.9496585 0 21 0.0489310345 21 21.8258966 21 21.951069 21 22 21 22 20.9496585 22 5.04097561 22 5"></polygon>
                <path d="M22,20.7580977 L22,6.24190227 C22,6.04202025 21.7691429,5.92866561 21.6087619,6.04995507 L14,13.6885466 L21.6087619,20.9500449 C21.7691429,21.0713344 22,20.9579798 22,20.7580977 Z" id="Shape" fill="#BDC3C7"></path>
                <path d="M0,5.00039286 L10.2941034,15.7124286 C10.692,16.0958571 11.3083793,16.0958571 11.7062759,15.7124286 L22,5" id="Shape" fill="#545E73"></path>
                <path d="M0,20.7580977 L0,6.24190227 C0,6.04202025 0.230857143,5.92866561 0.391238095,6.04995507 L8,13.6885466 L0.391238095,20.9500449 C0.230857143,21.0713344 0,20.9579798 0,20.7580977 Z" id="Shape" fill="#BDC3C7"></path>
                <path d="M21,5 L19.6486246,0.0370941678 L19.638548,0 L1.0365165,4.90487733 C0.980908953,4.91956809 0.991731899,5 1.04920547,5 L21,5 Z" id="Shape" fill="#BDC3C7"></path>
                <polygon id="Shape" fill="#293447" points="18 5 17.553536 3 15 3.82166237 15.2630535 5"></polygon>
                <path d="M1.06811146,4.902875 L12,2 L1,2 L1,2.039 L1,5 L1.08097695,5 C1.02270382,5 1.01173031,4.917875 1.06811146,4.902875 Z" id="Shape" fill="#293447"></path>
            </g>
        </g>
    </g>
</svg>