<?xml version="1.0" encoding="UTF-8" standalone="no"?>
<svg width="59px" height="59px" viewBox="0 0 59 59" version="1.1" xmlns="http://www.w3.org/2000/svg" xmlns:xlink="http://www.w3.org/1999/xlink">
    <!-- Generator: Sketch 48.2 (47327) - http://www.bohemiancoding.com/sketch -->
    <title>stopwatch-edit</title>
    <desc>Created with Sketch.</desc>
    <defs></defs>
    <g id="Page-1" stroke="none" stroke-width="1" fill="none" fill-rule="evenodd">
        <g id="stopwatch-edit" fill-rule="nonzero">
            <g id="Group">
                <circle id="Oval" fill="#ECF0F1" cx="29" cy="29.195" r="29"></circle>
                <path d="M29,4.195 C42.785,4.195 54,15.41 54,29.195 C54,42.98 42.785,54.195 29,54.195 C15.215,54.195 4,42.98 4,29.195 C4,15.41 15.215,4.195 29,4.195 Z M29,0.195 C12.984,0.195 0,13.179 0,29.195 C0,45.211 12.984,58.195 29,58.195 C45.016,58.195 58,45.211 58,29.195 C58,13.179 45.016,0.195 29,0.195 Z" id="Shape" fill="#545E73"></path>
                <g transform="translate(6.000000, 6.000000)" fill="#808AA1" id="Shape">
                    <path d="M23,0.073 C22.448,0.073 22,0.52 22,1.073 L22,2.073 C22,2.626 22.448,3.073 23,3.073 C23.552,3.073 24,2.626 24,2.073 L24,1.073 C24,0.521 23.552,0.073 23,0.073 Z"></path>
                    <path d="M23,43.073 C22.448,43.073 22,43.52 22,44.073 L22,45.073 C22,45.626 22.448,46.073 23,46.073 C23.552,46.073 24,45.626 24,45.073 L24,44.073 C24,43.521 23.552,43.073 23,43.073 Z"></path>
                    <path d="M45,22.073 L44,22.073 C43.448,22.073 43,22.52 43,23.073 C43,23.626 43.448,24.073 44,24.073 L45,24.073 C45.552,24.073 46,23.626 46,23.073 C46,22.52 45.552,22.073 45,22.073 Z"></path>
                    <path d="M2,22.073 L1,22.073 C0.448,22.073 0,22.52 0,23.073 C0,23.626 0.448,24.073 1,24.073 L2,24.073 C2.552,24.073 3,23.626 3,23.073 C3,22.52 2.552,22.073 2,22.073 Z"></path>
                    <path d="M37.849,6.81 L37.142,7.517 C36.751,7.908 36.751,8.54 37.142,8.931 C37.337,9.126 37.593,9.224 37.849,9.224 C38.105,9.224 38.361,9.126 38.556,8.931 L39.263,8.224 C39.654,7.833 39.654,7.201 39.263,6.81 C38.872,6.419 38.24,6.419 37.849,6.81 Z"></path>
                    <path d="M7.444,37.216 L6.737,37.923 C6.346,38.314 6.346,38.946 6.737,39.337 C6.932,39.532 7.188,39.63 7.444,39.63 C7.7,39.63 7.956,39.532 8.151,39.337 L8.858,38.63 C9.249,38.239 9.249,37.607 8.858,37.216 C8.467,36.825 7.834,36.825 7.444,37.216 Z"></path>
                    <path d="M38.556,37.216 C38.165,36.825 37.533,36.825 37.142,37.216 C36.751,37.607 36.751,38.239 37.142,38.63 L37.849,39.337 C38.044,39.532 38.3,39.63 38.556,39.63 C38.812,39.63 39.068,39.532 39.263,39.337 C39.654,38.946 39.654,38.314 39.263,37.923 L38.556,37.216 Z"></path>
                    <path d="M8.151,6.81 C7.76,6.419 7.128,6.419 6.737,6.81 C6.346,7.201 6.346,7.833 6.737,8.224 L7.444,8.931 C7.639,9.126 7.895,9.224 8.151,9.224 C8.407,9.224 8.663,9.126 8.858,8.931 C9.249,8.54 9.249,7.908 8.858,7.517 L8.151,6.81 Z"></path>
                </g>
                <path d="M26,30.074 L18,30.074 C17.447,30.074 17,29.627 17,29.074 C17,28.521 17.447,28.074 18,28.074 L26,28.074 C26.553,28.074 27,28.521 27,29.074 C27,29.627 26.553,30.074 26,30.074 Z" id="Shape" fill="#545E73"></path>
                <path d="M29,27.074 C28.447,27.074 28,26.627 28,26.074 L28,15.074 C28,14.521 28.447,14.074 29,14.074 C29.553,14.074 30,14.521 30,15.074 L30,26.074 C30,26.626 29.553,27.074 29,27.074 Z" id="Shape" fill="#545E73"></path>
                <path d="M29,33.074 C26.794,33.074 25,31.28 25,29.074 C25,26.868 26.794,25.074 29,25.074 C31.206,25.074 33,26.868 33,29.074 C33,31.28 31.206,33.074 29,33.074 Z M29,27.074 C27.897,27.074 27,27.971 27,29.074 C27,30.177 27.897,31.074 29,31.074 C30.103,31.074 31,30.177 31,29.074 C31,27.971 30.103,27.074 29,27.074 Z" id="Shape" fill="#545E73"></path>
            </g>
            <g id="Group" transform="translate(34.000000, 34.000000)">
                <path d="M24.39,11.041 L22.946,10.763 C20.803,10.351 19.821,7.847 21.111,6.088 L22.018,4.852 L20.06,2.894 L18.843,3.719 C17.037,4.943 14.571,3.867 14.239,1.711 L14.006,0.196 L11.237,0.196 L10.878,2.061 C10.475,4.157 8.06,5.157 6.293,3.96 L4.721,2.895 L2.763,4.853 L3.67,6.089 C4.96,7.849 3.978,10.352 1.835,10.764 L0.391,11.042 L0.391,13.811 L1.906,14.044 C4.063,14.376 5.138,16.841 3.914,18.648 L3.089,19.865 L5.047,21.823 L6.283,20.916 C8.043,19.626 10.546,20.608 10.958,22.751 L11.236,24.195 L14.005,24.195 L14.169,23.129 C14.508,20.925 17.065,19.866 18.863,21.185 L19.732,21.823 L21.69,19.865 L20.865,18.648 C19.641,16.842 20.717,14.376 22.873,14.044 L24.388,13.811 L24.388,11.041 L24.39,11.041 Z" id="Shape" fill="#BDC3C7"></path>
                <g transform="translate(7.000000, 7.000000)">
                    <circle id="Oval" fill="#FFFFFF" cx="5.39" cy="5.195" r="4"></circle>
                    <path d="M5.39,10.195 C2.633,10.195 0.39,7.952 0.39,5.195 C0.39,2.438 2.633,0.195 5.39,0.195 C8.147,0.195 10.39,2.438 10.39,5.195 C10.39,7.952 8.146,10.195 5.39,10.195 Z M5.39,2.195 C3.736,2.195 2.39,3.541 2.39,5.195 C2.39,6.849 3.736,8.195 5.39,8.195 C7.044,8.195 8.39,6.849 8.39,5.195 C8.39,3.541 7.044,2.195 5.39,2.195 Z" id="Shape" fill="#ECF0F1"></path>
                </g>
            </g>
        </g>
    </g>
</svg>