<?xml version="1.0" encoding="UTF-8" standalone="no"?>
<svg width="60px" height="59px" viewBox="0 0 60 59" version="1.1" xmlns="http://www.w3.org/2000/svg" xmlns:xlink="http://www.w3.org/1999/xlink">
    <!-- Generator: Sketch 48.2 (47327) - http://www.bohemiancoding.com/sketch -->
    <title>stopwatch-success</title>
    <desc>Created with Sketch.</desc>
    <defs></defs>
    <g id="Page-1" stroke="none" stroke-width="1" fill="none" fill-rule="evenodd">
        <g id="stopwatch-success" fill-rule="nonzero">
            <g id="Group">
                <circle id="Oval" fill="#ECF0F1" cx="29" cy="29.695" r="29"></circle>
                <path d="M29,4.695 C42.785,4.695 54,15.91 54,29.695 C54,43.48 42.785,54.695 29,54.695 C15.215,54.695 4,43.48 4,29.695 C4,15.91 15.215,4.695 29,4.695 Z M29,0.695 C12.984,0.695 0,13.679 0,29.695 C0,45.711 12.984,58.695 29,58.695 C45.016,58.695 58,45.711 58,29.695 C58,13.679 45.016,0.695 29,0.695 Z" id="Shape" fill="#545E73"></path>
                <g transform="translate(6.000000, 6.000000)" fill="#808AA1" id="Shape">
                    <path d="M23,0.573 C22.448,0.573 22,1.02 22,1.573 L22,2.573 C22,3.126 22.448,3.573 23,3.573 C23.552,3.573 24,3.126 24,2.573 L24,1.573 C24,1.021 23.552,0.573 23,0.573 Z"></path>
                    <path d="M23,43.573 C22.448,43.573 22,44.02 22,44.573 L22,45.573 C22,46.126 22.448,46.573 23,46.573 C23.552,46.573 24,46.126 24,45.573 L24,44.573 C24,44.021 23.552,43.573 23,43.573 Z"></path>
                    <path d="M45,22.573 L44,22.573 C43.448,22.573 43,23.02 43,23.573 C43,24.126 43.448,24.573 44,24.573 L45,24.573 C45.552,24.573 46,24.126 46,23.573 C46,23.02 45.552,22.573 45,22.573 Z"></path>
                    <path d="M2,22.573 L1,22.573 C0.448,22.573 0,23.02 0,23.573 C0,24.126 0.448,24.573 1,24.573 L2,24.573 C2.552,24.573 3,24.126 3,23.573 C3,23.02 2.552,22.573 2,22.573 Z"></path>
                    <path d="M37.849,7.31 L37.142,8.017 C36.751,8.408 36.751,9.04 37.142,9.431 C37.337,9.626 37.593,9.724 37.849,9.724 C38.105,9.724 38.361,9.626 38.556,9.431 L39.263,8.724 C39.654,8.333 39.654,7.701 39.263,7.31 C38.872,6.919 38.24,6.919 37.849,7.31 Z"></path>
                    <path d="M7.444,37.716 L6.737,38.423 C6.346,38.814 6.346,39.446 6.737,39.837 C6.932,40.032 7.188,40.13 7.444,40.13 C7.7,40.13 7.956,40.032 8.151,39.837 L8.858,39.13 C9.249,38.739 9.249,38.107 8.858,37.716 C8.467,37.325 7.834,37.325 7.444,37.716 Z"></path>
                    <path d="M38.556,37.716 C38.165,37.325 37.533,37.325 37.142,37.716 C36.751,38.107 36.751,38.739 37.142,39.13 L37.849,39.837 C38.044,40.032 38.3,40.13 38.556,40.13 C38.812,40.13 39.068,40.032 39.263,39.837 C39.654,39.446 39.654,38.814 39.263,38.423 L38.556,37.716 Z"></path>
                    <path d="M8.151,7.31 C7.76,6.919 7.128,6.919 6.737,7.31 C6.346,7.701 6.346,8.333 6.737,8.724 L7.444,9.431 C7.639,9.626 7.895,9.724 8.151,9.724 C8.407,9.724 8.663,9.626 8.858,9.431 C9.249,9.04 9.249,8.408 8.858,8.017 L8.151,7.31 Z"></path>
                </g>
                <path d="M26,30.574 L18,30.574 C17.448,30.574 17,30.127 17,29.574 C17,29.021 17.448,28.574 18,28.574 L26,28.574 C26.552,28.574 27,29.021 27,29.574 C27,30.127 26.552,30.574 26,30.574 Z" id="Shape" fill="#545E73"></path>
                <path d="M29,27.574 C28.448,27.574 28,27.127 28,26.574 L28,15.574 C28,15.021 28.448,14.574 29,14.574 C29.552,14.574 30,15.021 30,15.574 L30,26.574 C30,27.126 29.552,27.574 29,27.574 Z" id="Shape" fill="#545E73"></path>
                <path d="M29,33.574 C26.794,33.574 25,31.78 25,29.574 C25,27.368 26.794,25.574 29,25.574 C31.206,25.574 33,27.368 33,29.574 C33,31.78 31.206,33.574 29,33.574 Z M29,27.574 C27.897,27.574 27,28.471 27,29.574 C27,30.677 27.897,31.574 29,31.574 C30.103,31.574 31,30.677 31,29.574 C31,28.471 30.103,27.574 29,27.574 Z" id="Shape" fill="#545E73"></path>
            </g>
            <g id="Group" transform="translate(35.000000, 34.000000)">
                <circle id="Oval" fill="#26B999" cx="12.39" cy="12.695" r="12"></circle>
                <path d="M18.961,6.874 C18.506,6.558 17.884,6.67 17.569,7.124 L11.973,15.164 L8.024,11.922 C7.598,11.571 6.967,11.634 6.617,12.061 C6.266,12.488 6.328,13.118 6.756,13.468 L11.542,17.397 C11.722,17.544 11.946,17.624 12.176,17.624 C12.221,17.624 12.267,17.621 12.313,17.615 C12.589,17.576 12.837,17.425 12.997,17.196 L19.211,8.267 C19.526,7.813 19.414,7.189 18.961,6.874 Z" id="Shape" fill="#FDFFFC"></path>
            </g>
        </g>
    </g>
</svg>