<?xml version="1.0" encoding="UTF-8" standalone="no"?>
<svg width="58px" height="58px" viewBox="0 0 58 58" version="1.1" xmlns="http://www.w3.org/2000/svg" xmlns:xlink="http://www.w3.org/1999/xlink">
    <!-- Generator: Sketch 48.2 (47327) - http://www.bohemiancoding.com/sketch -->
    <title>stopwatch-create</title>
    <desc>Created with Sketch.</desc>
    <defs></defs>
    <g id="Page-1" stroke="none" stroke-width="1" fill="none" fill-rule="evenodd">
        <g id="stopwatch-create" fill-rule="nonzero">
            <circle id="Oval" fill="#FDFFFC" cx="29" cy="29" r="29"></circle>
            <path d="M29,4 C42.785,4 54,15.215 54,29 C54,42.785 42.785,54 29,54 C15.215,54 4,42.785 4,29 C4,15.215 15.215,4 29,4 Z M29,0 C12.984,0 0,12.984 0,29 C0,45.016 12.984,58 29,58 C45.016,58 58,45.016 58,29 C58,12.984 45.016,0 29,0 Z" id="Shape" fill="#545E73"></path>
            <g id="Group" transform="translate(6.000000, 5.000000)" fill="#808AA1">
                <path d="M23,0.879 C22.448,0.879 22,1.326 22,1.879 L22,2.879 C22,3.432 22.448,3.879 23,3.879 C23.552,3.879 24,3.432 24,2.879 L24,1.879 C24,1.326 23.552,0.879 23,0.879 Z" id="Shape"></path>
                <path d="M23,43.879 C22.448,43.879 22,44.326 22,44.879 L22,45.879 C22,46.432 22.448,46.879 23,46.879 C23.552,46.879 24,46.432 24,45.879 L24,44.879 C24,44.326 23.552,43.879 23,43.879 Z" id="Shape"></path>
                <path d="M45,22.879 L44,22.879 C43.448,22.879 43,23.326 43,23.879 C43,24.432 43.448,24.879 44,24.879 L45,24.879 C45.552,24.879 46,24.432 46,23.879 C46,23.326 45.552,22.879 45,22.879 Z" id="Shape"></path>
                <path d="M2,22.879 L1,22.879 C0.448,22.879 0,23.326 0,23.879 C0,24.432 0.448,24.879 1,24.879 L2,24.879 C2.552,24.879 3,24.432 3,23.879 C3,23.326 2.552,22.879 2,22.879 Z" id="Shape"></path>
                <path d="M37.849,7.615 L37.142,8.322 C36.751,8.713 36.751,9.345 37.142,9.736 C37.337,9.931 37.593,10.029 37.849,10.029 C38.105,10.029 38.361,9.931 38.556,9.736 L39.263,9.029 C39.654,8.638 39.654,8.006 39.263,7.615 C38.872,7.224 38.24,7.224 37.849,7.615 Z" id="Shape"></path>
                <path d="M7.444,38.021 L6.737,38.728 C6.346,39.119 6.346,39.751 6.737,40.142 C6.932,40.337 7.188,40.435 7.444,40.435 C7.7,40.435 7.956,40.337 8.151,40.142 L8.858,39.435 C9.249,39.044 9.249,38.412 8.858,38.021 C8.467,37.63 7.834,37.631 7.444,38.021 Z" id="Shape"></path>
                <path d="M38.556,38.021 C38.165,37.63 37.533,37.63 37.142,38.021 C36.751,38.412 36.751,39.044 37.142,39.435 L37.849,40.142 C38.044,40.337 38.3,40.435 38.556,40.435 C38.812,40.435 39.068,40.337 39.263,40.142 C39.654,39.751 39.654,39.119 39.263,38.728 L38.556,38.021 Z" id="Shape"></path>
                <path d="M8.151,7.615 C7.76,7.224 7.128,7.224 6.737,7.615 C6.346,8.006 6.346,8.638 6.737,9.029 L7.444,9.736 C7.639,9.931 7.895,10.029 8.151,10.029 C8.407,10.029 8.663,9.931 8.858,9.736 C9.249,9.345 9.249,8.713 8.858,8.322 L8.151,7.615 Z" id="Shape"></path>
            </g>
            <path d="M26,29.879 L18,29.879 C17.448,29.879 17,29.432 17,28.879 C17,28.326 17.448,27.879 18,27.879 L26,27.879 C26.552,27.879 27,28.326 27,28.879 C27,29.432 26.552,29.879 26,29.879 Z" id="Shape" fill="#545E73"></path>
            <path d="M29,26.879 C28.448,26.879 28,26.432 28,25.879 L28,14.879 C28,14.326 28.448,13.879 29,13.879 C29.552,13.879 30,14.326 30,14.879 L30,25.879 C30,26.432 29.552,26.879 29,26.879 Z" id="Shape" fill="#545E73"></path>
            <path d="M29,32.879 C26.794,32.879 25,31.085 25,28.879 C25,26.673 26.794,24.879 29,24.879 C31.206,24.879 33,26.673 33,28.879 C33,31.085 31.206,32.879 29,32.879 Z M29,26.879 C27.897,26.879 27,27.776 27,28.879 C27,29.982 27.897,30.879 29,30.879 C30.103,30.879 31,29.982 31,28.879 C31,27.776 30.103,26.879 29,26.879 Z" id="Shape" fill="#545E73"></path>
            <g id="Group" transform="translate(32.000000, 34.000000)">
                <circle id="Oval" fill="#71C386" cx="12.39" cy="12" r="12"></circle>
                <path d="M18.39,11 L13.39,11 L13.39,6 C13.39,5.448 12.942,5 12.39,5 C11.838,5 11.39,5.448 11.39,6 L11.39,11 L6.39,11 C5.838,11 5.39,11.448 5.39,12 C5.39,12.552 5.838,13 6.39,13 L11.39,13 L11.39,18 C11.39,18.552 11.838,19 12.39,19 C12.942,19 13.39,18.552 13.39,18 L13.39,13 L18.39,13 C18.942,13 19.39,12.552 19.39,12 C19.39,11.448 18.942,11 18.39,11 Z" id="Shape" fill="#FDFFFC"></path>
            </g>
        </g>
    </g>
</svg>