<?xml version="1.0"?>
<svg xmlns="http://www.w3.org/2000/svg" xmlns:xlink="http://www.w3.org/1999/xlink" version="1.1" id="Capa_1" x="0px" y="0px" viewBox="0 0 58 58" style="enable-background:new 0 0 58 58;" xml:space="preserve" width="512px" height="512px" class=""><g><style type="text/css" id="night-mode-pro-style"/><link type="text/css" rel="stylesheet" id="night-mode-pro-link"/><g>
	<circle style="fill:#ECF0F1;" cx="29" cy="29" r="29" data-original="#ECF0F1" class=""/>
	<path style="fill:#545E73;" d="M29,4c13.785,0,25,11.215,25,25S42.785,54,29,54S4,42.785,4,29S15.215,4,29,4 M29,0   C12.984,0,0,12.984,0,29s12.984,29,29,29s29-12.984,29-29S45.016,0,29,0L29,0z" data-original="#545E73"/>
	<g>
		<path d="M29,5.879c-0.552,0-1,0.447-1,1v1c0,0.553,0.448,1,1,1s1-0.447,1-1v-1    C30,6.326,29.552,5.879,29,5.879z" data-original="#8697CB" class="" data-old_color="#8b97b5" style="fill:#8B97B5"/>
		<path d="M29,48.879c-0.552,0-1,0.447-1,1v1c0,0.553,0.448,1,1,1s1-0.447,1-1v-1    C30,49.326,29.552,48.879,29,48.879z" data-original="#8697CB" class="" data-old_color="#8b97b5" style="fill:#8B97B5"/>
		<path d="M51,27.879h-1c-0.552,0-1,0.447-1,1s0.448,1,1,1h1c0.552,0,1-0.447,1-1S51.552,27.879,51,27.879z" data-original="#8697CB" class="" data-old_color="#8b97b5" style="fill:#8B97B5"/>
		<path d="M8,27.879H7c-0.552,0-1,0.447-1,1s0.448,1,1,1h1c0.552,0,1-0.447,1-1S8.552,27.879,8,27.879z" data-original="#8697CB" class="" data-old_color="#8b97b5" style="fill:#8B97B5"/>
		<path d="M43.849,12.615l-0.707,0.707c-0.391,0.391-0.391,1.023,0,1.414    c0.195,0.195,0.451,0.293,0.707,0.293s0.512-0.098,0.707-0.293l0.707-0.707c0.391-0.391,0.391-1.023,0-1.414    S44.24,12.224,43.849,12.615z" data-original="#8697CB" class="" data-old_color="#8b97b5" style="fill:#8B97B5"/>
		<path d="M13.444,43.021l-0.707,0.707c-0.391,0.391-0.391,1.023,0,1.414    c0.195,0.195,0.451,0.293,0.707,0.293s0.512-0.098,0.707-0.293l0.707-0.707c0.391-0.391,0.391-1.023,0-1.414    S13.834,42.631,13.444,43.021z" data-original="#8697CB" class="" data-old_color="#8b97b5" style="fill:#8B97B5"/>
		<path d="M44.556,43.021c-0.391-0.391-1.023-0.391-1.414,0s-0.391,1.023,0,1.414l0.707,0.707    c0.195,0.195,0.451,0.293,0.707,0.293s0.512-0.098,0.707-0.293c0.391-0.391,0.391-1.023,0-1.414L44.556,43.021z" data-original="#8697CB" class="" data-old_color="#8b97b5" style="fill:#8B97B5"/>
		<path d="M14.151,12.615c-0.391-0.391-1.023-0.391-1.414,0s-0.391,1.023,0,1.414l0.707,0.707    c0.195,0.195,0.451,0.293,0.707,0.293s0.512-0.098,0.707-0.293c0.391-0.391,0.391-1.023,0-1.414L14.151,12.615z" data-original="#8697CB" class="" data-old_color="#8b97b5" style="fill:#8B97B5"/>
	</g>
	<path style="fill:#545E73;" d="M26,29.879h-8c-0.552,0-1-0.447-1-1s0.448-1,1-1h8c0.552,0,1,0.447,1,1S26.552,29.879,26,29.879z" data-original="#545E73"/>
	<path style="fill:#545E73;" d="M29,26.879c-0.552,0-1-0.447-1-1v-11c0-0.553,0.448-1,1-1s1,0.447,1,1v11   C30,26.432,29.552,26.879,29,26.879z" data-original="#545E73"/>
	<path style="fill:#545E73;" d="M29,32.879c-2.206,0-4-1.794-4-4s1.794-4,4-4s4,1.794,4,4S31.206,32.879,29,32.879z M29,26.879   c-1.103,0-2,0.897-2,2s0.897,2,2,2s2-0.897,2-2S30.103,26.879,29,26.879z" data-original="#545E73"/>
	<g>
		<circle style="fill:#71C386;" cx="44.39" cy="46" r="12" data-original="#71C386" class=""/>
		<path d="M50.39,45h-5v-5c0-0.552-0.448-1-1-1s-1,0.448-1,1v5h-5c-0.552,0-1,0.448-1,1s0.448,1,1,1h5v5    c0,0.552,0.448,1,1,1s1-0.448,1-1v-5h5c0.552,0,1-0.448,1-1S50.942,45,50.39,45z" data-original="#FFFFFF" class="active-path" data-old_color="#FFFFFF" style="fill:#ECF0F1"/>
	</g>
</g></g> </svg>
